<svg xmlns="http://www.w3.org/2000/svg" viewBox="0 0 1064 1064"><defs><style>.cls-1,.cls-4{fill:#c1272d;}.cls-2,.cls-5{fill:#f8db6a;}.cls-3{fill:none;}.cls-4,.cls-5,.cls-7{font-size:144px;font-family:Impact, Impact;}.cls-6{fill:#fff;}</style></defs><title>7-part-wheel</title><g id="_14-wedges" data-name="14-wedges"><path class="cls-1" d="M760.53,53.4,530.21,531.67V1A528.72,528.72,0,0,1,760.53,53.4Z"/><path class="cls-1" d="M1049.51,413.55,532,531.67l414.93-330.9A528.31,528.31,0,0,1,1049.51,413.55Z"/><path class="cls-2" d="M946.93,200.77,532,531.67,762.32,53.4A532.61,532.61,0,0,1,946.93,200.77Z"/><path class="cls-1" d="M1049.51,649.79A528.31,528.31,0,0,1,946.93,862.57L532,531.67Z"/><path class="cls-1" d="M762.32,1009.94A528.72,528.72,0,0,1,532,1062.38V531.67Z"/><path class="cls-1" d="M532,531.67,301.68,1009.94A532.61,532.61,0,0,1,117.07,862.57Z"/><path class="cls-1" d="M532,531.67,14.49,649.79a535.1,535.1,0,0,1,0-236.24Z"/><path class="cls-2" d="M14.49,649.79,532,531.67,117.07,862.57A528.31,528.31,0,0,1,14.49,649.79Z"/><path class="cls-1" d="M530.21,531.67,115.28,200.77A532.61,532.61,0,0,1,299.89,53.4Z"/><path class="cls-2" d="M117.07,200.77,532,531.67,14.49,413.55A528.31,528.31,0,0,1,117.07,200.77Z"/><path class="cls-2" d="M532,1V531.67L301.68,53.4A528.72,528.72,0,0,1,532,1Z"/><path class="cls-2" d="M301.68,1009.94,532,531.67v530.71A528.72,528.72,0,0,1,301.68,1009.94Z"/><path class="cls-2" d="M946.93,862.74a532.61,532.61,0,0,1-184.61,147.37L532,531.84Z"/><path class="cls-2" d="M1049.51,649.79,532,531.67l517.51-118.12a535.1,535.1,0,0,1,0,236.24Z"/><line class="cls-3" x1="301.68" y1="53.4" x2="289.21" y2="27.51"/><line class="cls-3" x1="117.07" y1="200.77" x2="94.51" y2="182.78"/><line class="cls-3" x1="14.49" y1="413.55" x2="-13.54" y2="407.15"/><line class="cls-3" x1="14.49" y1="649.79" x2="-13.54" y2="656.19"/><line class="cls-3" x1="117.07" y1="862.57" x2="94.51" y2="880.56"/><line class="cls-3" x1="301.68" y1="1009.94" x2="289.21" y2="1035.83"/><line class="cls-3" x1="774.79" y1="1035.83" x2="762.32" y2="1009.94"/><line class="cls-3" x1="969.49" y1="880.56" x2="946.93" y2="862.57"/><line class="cls-3" x1="1077.54" y1="656.19" x2="1049.51" y2="649.79"/><line class="cls-3" x1="1077.54" y1="407.15" x2="1049.51" y2="413.55"/><line class="cls-3" x1="969.49" y1="182.78" x2="946.93" y2="200.77"/><line class="cls-3" x1="774.79" y1="27.51" x2="762.32" y2="53.4"/></g><g id="_14-numbers" data-name="14-numbers"><text class="cls-4" transform="translate(423.44 182.74) rotate(-12.86)">7</text><text class="cls-5" transform="matrix(0.78, -0.62, 0.62, 0.78, 274.33, 271.1)">6</text><text class="cls-4" transform="translate(186.93 408.36) rotate(-64.29)">5</text><text class="cls-5" transform="translate(167.55 567.71) rotate(-90)">4</text><text class="cls-4" transform="translate(220.32 724.19) rotate(-115.71)">3</text><text class="cls-5" transform="matrix(-0.78, -0.62, 0.62, -0.78, 333.09, 839.09)">2</text><text class="cls-4" transform="translate(477.63 893) rotate(-167.14)">1</text><text class="cls-5" transform="translate(640.56 880.61) rotate(167.14)">7</text><text class="cls-4" transform="matrix(-0.78, 0.62, -0.62, -0.78, 789.67, 792.25)">6</text><text class="cls-5" transform="translate(877.07 654.99) rotate(115.71)">5</text><text class="cls-4" transform="translate(896.45 495.63) rotate(90)">4</text><text class="cls-5" transform="translate(841.9 339.16) rotate(64.29)">3</text><text class="cls-4" transform="matrix(0.78, 0.62, -0.62, 0.78, 730.91, 224.25)">2</text><text class="cls-5" transform="translate(586.36 170.35) rotate(12.86)">1</text></g><g id="_14-center" data-name="14-center"><circle class="cls-6" cx="532.5" cy="523.7" r="190.07"/><text class="cls-7" transform="translate(383.16 576)">Click</text></g></svg>